Coordinates
version=1
nRows=24
nColumns=24
inDegrees=yes

Units are S.I. units (second, meters, Newtons, ...)
Angles are in degrees.

endheader
time	pelvis_tilt	pelvis_list	pelvis_rotation	pelvis_tx	pelvis_ty	pelvis_tz	hip_flexion_r	hip_adduction_r	hip_rotation_r	knee_angle_r	ankle_angle_r	subtalar_angle_r	mtp_angle_r	hip_flexion_l	hip_adduction_l	hip_rotation_l	knee_angle_l	ankle_angle_l	subtalar_angle_l	mtp_angle_l	lumbar_extension	lumbar_bending	lumbar_rotation
      5.88000000	     -3.17865358	     -8.43305346	     -7.15746166	     -0.99223768	      0.68797511	      0.23134893	    -14.89986288	     13.71958482	     20.98887679	     -8.37828713	     17.71107652	     -4.39611649	      0.00000000	     19.73230214	     -9.12925566	      9.05155458	      7.66162042	      3.44655264	    -18.73678679	      0.00000000	    -14.78982360	      7.28327279	      4.56303433
      5.89000000	     -3.18231320	     -8.61892144	     -7.35393255	     -0.97779552	      0.68702959	      0.23078951	    -15.43560456	     13.65982684	     19.91314981	     -9.72308660	     17.55018689	     -2.24246570	      0.00000000	     19.14276890	     -9.06156692	      8.30636863	      8.89194542	      3.60364890	    -18.44655365	      0.00000000	    -14.63194967	      7.56426416	      4.36269301
      5.90000000	     -3.15437759	     -8.53076152	     -7.53380725	     -0.96328183	      0.68647541	      0.23013157	    -15.67895652	     13.32017160	     18.44938776	    -11.50124366	     17.30731126	      0.18700201	      0.00000000	     18.74416298	     -8.65113170	      8.18116271	      9.14641104	      3.34547132	    -19.16885130	      0.00000000	    -14.50384015	      7.50430968	      4.11485275
      5.91000000	     -3.11580613	     -8.20639527	     -7.58871520	     -0.94878902	      0.68625071	      0.22919846	    -15.56873853	     12.73622933	     16.50706525	    -13.73207527	     16.90204520	      3.00747047	      0.00000000	     18.65045308	     -7.91367768	      8.71885867	      8.39853752	      2.67258903	    -20.63690807	      0.00000000	    -14.39232897	      7.19408125	      3.72464230
      5.92000000	     -3.03541545	     -7.59210183	     -7.64572992	     -0.93415118	      0.68638873	      0.22819402	    -15.16488274	     11.80520679	     14.34739855	    -16.39187928	     16.17636386	      5.85505007	      0.00000000	     18.72535936	     -6.82969397	      9.57174697	      6.84141760	      1.64291397	    -22.52412309	      0.00000000	    -14.26265719	      6.51663757	      3.34028456
      5.93000000	     -3.00499964	     -6.93916628	     -7.70060522	     -0.91970258	      0.68670239	      0.22697517	    -14.31982902	     10.78837153	     12.04766513	    -19.57095183	     14.91537563	      8.53374388	      0.00000000	     19.07367051	     -5.66622050	     10.93298966	      4.59706017	      0.16128381	    -24.93617030	      0.00000000	    -14.14371962	      5.85808131	      2.98969458
      5.94000000	     -2.79514253	     -5.95790865	     -7.72079153	     -0.90504087	      0.68741047	      0.22564949	    -13.38988402	      9.33778528	      9.89672075	    -23.04058534	     13.21530939	     10.92511971	      0.00000000	     19.36370960	     -4.05454096	     12.04988276	      1.87307855	     -1.30703090	    -26.66909147	      0.00000000	    -14.14523667	      4.75802097	      2.59396102
      5.95000000	     -2.41734775	     -4.75805711	     -7.79113722	     -0.89020380	      0.68840895	      0.22431046	    -12.39091398	      7.56970422	      8.05656887	    -26.77116565	     11.03951170	     12.86622148	      0.00000000	     19.53964296	     -2.14393620	     12.64344446	     -1.12773954	     -2.41371603	    -27.53910779	      0.00000000	    -14.26657883	      3.36476366	      2.22408787
      5.96000000	     -2.23841239	     -3.68391590	     -7.88671960	     -0.87566051	      0.68921788	      0.22283768	    -10.84058794	      5.91074193	      6.40209660	    -30.88208983	      8.26416846	     14.37893528	      0.00000000	     19.91321020	     -0.38215090	     13.31780322	     -4.14098790	     -3.51740659	    -28.21773646	      0.00000000	    -14.22145541	      2.22118061	      1.95756167
      5.97000000	     -1.72503139	     -2.48502499	     -8.06749400	     -0.86105692	      0.69045539	      0.22161127	     -9.48000362	      4.07455404	      5.24460484	    -35.03197034	      5.08638223	     15.24642540	      0.00000000	     19.78972639	      1.49197894	     13.22210272	     -6.90500079	     -4.07770019	    -28.01906393	      0.00000000	    -14.52926159	      0.81887097	      1.77568535
      5.98000000	     -1.79578267	     -1.42879663	     -8.38457183	     -0.84702312	      0.69090321	      0.22054460	     -7.13356854	      2.50830620	      4.54792157	    -39.51016984	      1.82242767	     15.73891414	      0.00000000	     20.30712711	      3.05414342	     12.57568565	     -9.61863586	     -3.66097068	    -26.84243454	      0.00000000	    -14.21081776	     -0.30584144	      1.77687327
      5.99000000	     -1.57465751	     -0.35942413	     -8.77311129	     -0.83307127	      0.69165433	      0.21974197	     -4.96754868	      0.95782752	      4.26301046	    -43.88001965	     -1.41416407	     15.83645338	      0.00000000	     20.15129219	      4.54470314	     11.88816924	    -11.63782430	     -3.19858611	    -25.99830968	      0.00000000	    -14.21579129	     -1.52669124	      1.84094010
      6.00000000	     -1.49496066	      0.58913601	     -9.16845919	     -0.81949252	      0.69222653	      0.21918019	     -2.51087977	     -0.27315790	      4.35362277	    -48.13614955	     -4.41199126	     15.40806765	      0.00000000	     19.88683759	      5.81108270	     11.24325951	    -13.13657403	     -2.51445858	    -25.32199497	      0.00000000	    -14.09843417	     -2.59402836	      1.87124440
      6.01000000	     -1.41798840	      1.49971768	     -9.50756762	     -0.80607453	      0.69278181	      0.21865747	      0.01875189	     -1.34519318	      4.61703396	    -52.18370862	     -6.76011623	     14.96925197	      0.00000000	     19.30581524	      7.01118596	     10.77770692	    -14.02691677	     -1.75956742	    -24.99696074	      0.00000000	    -13.96508075	     -3.59220411	      1.82678009
      6.02000000	     -1.36114905	      2.35854593	     -9.80229104	     -0.79278288	      0.69333209	      0.21825000	      2.59332054	     -2.20936255	      5.06276365	    -55.97213045	     -8.22723257	     14.56642613	      0.00000000	     18.41788252	      8.13277327	     10.59992918	    -14.33281565	     -0.94131828	    -24.98978657	      0.00000000	    -13.77296709	     -4.52088052	      1.71362932
      6.03000000	     -1.20581545	      3.11182217	     -9.98494576	     -0.77956812	      0.69411380	      0.21787708	      5.00291829	     -2.85215360	      5.53225325	    -59.38665622	     -8.79059872	     14.19829069	      0.00000000	     17.11440401	      9.16660568	     10.69289700	    -14.10919070	     -0.20281498	    -25.24951871	      0.00000000	    -13.71086136	     -5.31684937	      1.36780638
      6.04000000	     -1.09784705	      3.72878593	    -10.13764799	     -0.76644965	      0.69492873	      0.21760998	      7.39951036	     -3.22311418	      6.05774358	    -62.43421560	     -8.34046817	     13.89712039	      0.00000000	     15.61160957	     10.03510818	     11.08264111	    -13.49921046	      0.49661949	    -25.73637566	      0.00000000	    -13.58327614	     -5.94950997	      1.04604660
      6.05000000	     -1.02766344	      4.17557410	    -10.19947301	     -0.75335838	      0.69584742	      0.21734587	      9.71689699	     -3.32911720	      6.51669477	    -65.03027056	     -7.10050192	     13.64125102	      0.00000000	     13.93689379	     10.71884364	     11.79381980	    -12.59201606	      0.97147746	    -26.49784686	      0.00000000	    -13.41698468	     -6.35621615	      0.66542083
      6.06000000	     -0.93811450	      4.40171684	    -10.11029774	     -0.74020473	      0.69696592	      0.21700513	     11.83100040	     -3.18529326	      6.76329318	    -67.09047465	     -5.35150862	     13.29395520	      0.00000000	     12.03256261	     11.17843466	     12.96977832	    -11.44049231	      1.11091171	    -27.65891643	      0.00000000	    -13.29188893	     -6.48417451	      0.12876911
      6.07000000	     -0.77401382	      4.39138820	     -9.81553145	     -0.72728960	      0.69830310	      0.21655221	     13.69109230	     -2.82904698	      6.66263314	    -68.61073001	     -3.23817053	     12.56715254	      0.00000000	     10.05528281	     11.39600519	     14.25429815	    -10.39121368	      1.34736265	    -28.47326882	      0.00000000	    -13.40498225	     -6.34925445	     -0.41355702
      6.08000000	     -0.68619627	      4.17480010	     -9.46470053	     -0.71432891	      0.69968822	      0.21615630	     15.46665165	     -2.24938370	      6.40701262	    -69.57574136	     -1.12626872	     11.53384385	      0.00000000	      8.07441922	     11.32971822	     15.58274736	     -9.26525125	      1.44387348	    -29.35409765	      0.00000000	    -13.42954764	     -5.96411554	     -1.01786281
      6.09000000	     -0.63708404	      3.88365410	     -9.04313037	     -0.70153722	      0.70098676	      0.21570544	     17.20234454	     -1.65613476	      5.95326030	    -70.08841302	      0.93939690	     10.25910276	      0.00000000	      6.19868441	     11.15036100	     16.75916175	     -8.23237229	      1.53111513	    -30.08088040	      0.00000000	    -13.46962692	     -5.50309229	     -1.61646006
      6.10000000	     -0.66889175	      3.51336991	     -8.55543573	     -0.68898432	      0.70213418	      0.21524738	     18.92998057	     -1.00658594	      5.37374366	    -70.14020869	      2.85220461	      8.73036830	      0.00000000	      4.50234577	     10.84718318	     17.81244058	     -7.34056857	      1.67571909	    -30.57429006	      0.00000000	    -13.49964377	     -4.96655873	     -2.12865753
      6.11000000	     -0.66489039	      3.12513012	     -7.94381642	     -0.67666446	      0.70317166	      0.21468042	     20.52345984	     -0.43142391	      4.62910115	    -69.75715148	      4.57414504	      7.04706933	      0.00000000	      2.79833422	     10.50180573	     19.15417911	     -6.47302248	      1.51341006	    -31.42073682	      0.00000000	    -13.67879781	     -4.43724199	     -2.73689916
